Patient4_TMGait_0pt6_02_right_24_EMG.mot
version=1
nRows=39
nColumns=33
inDegrees=no
endheader
time	1LAddLong	2LGlutMax	3LGlutMed	4LIliopsoas	5LSemiMemb	6LBicFemLong	7LRecFem	8LVastMed	9LVastLat	10LGasMed	11LTibAnt	12lTibPost	13LPeroneusLong	14LSol	15LExtDigLong	16LFlexDigLong	17RAddLong	18RGlutMax	19RGlutMed	20RIliopsoas	21RSemiMemb	22RBicFemLong	23RRecFem	24RVastMed	25RVastLat	26RGasMed	27RTibAnt	28RTibPost	29RPeroneusLong	30RSol	31RExtDigLong	32RFlexDigLong
30.043	0.007477	-0.06958	0.081177	0.01236	0.075684	0.059357	0.007019	0.00473	-0.14053	-0.55939	0.043945	0.004883	-0.062103	0.046387	0.011292	0.021667	-0.003967	-0.032196	-0.032501	0.00473	-0.031433	0.031586	-0.044098	-0.074158	0.031433	0.001984	0.078278	-0.007477	-0.36331	-0.025177	-0.001984	-0.010681
30.044	0.006409	-0.06546	-0.003052	0.010223	0.064087	0.15945	-0.024261	0.009308	-0.022278	-0.37613	-0.003357	-0.011139	0.033112	0.094757	0.011292	0.007324	-0.003815	-0.036316	-0.020447	0.016479	-0.010376	0.059204	-0.026245	-0.093079	0.020599	0.007172	0.088654	-0.001678	-0.35706	-0.055389	-0.002441	-0.004272
30.045	0.009003	-0.030212	-0.026245	0.016022	0.043488	0.27771	0.011597	-0.000763	0.024719	-0.25238	-0.12421	-0.016937	0.09964	0.18616	0.06958	0.020142	0.003662	-0.030975	-0.13306	0.020447	-0.024872	0.043488	-0.10803	-0.087891	0.030212	0.006256	0.068207	-0.005188	0.20157	-0.037689	-0.003662	-0.004578
30.046	0.007935	-0.032501	0.058289	-0.00885	0.018158	0.30731	0.057678	0.004578	0.011292	-0.13123	-0.1738	0.0177	0.37277	0.07309	0.045471	0.007935	-0.010834	-0.042267	-0.23727	-0.000305	-0.032196	0.032959	-0.10925	-0.066833	0.016022	0.000916	0.067291	-0.00412	0.72723	-0.07309	-0.000916	-0.012817
30.047	0.003357	-0.046234	0.086823	0.001984	-0.000305	0.30075	0.064392	0.005188	0.019379	-0.12497	-0.11917	0.006866	0.19806	0.052185	0.011902	-0.008698	-0.00946	0.046387	-0.089417	-0.030212	-0.017395	0.037537	-0.11124	-0.064697	0.026703	-0.009613	0.21469	-0.003357	0.54947	-0.072632	-0.000763	-0.014343
30.048	0.004425	-0.049286	0.078888	0.010223	-0.010834	0.25055	0.045166	0.007629	0.018768	-0.095825	-0.053406	0.007477	-0.11688	0.11795	0.066986	-0.031738	-0.001221	0.001526	0.12192	-0.042114	-0.014648	0.031433	-0.13534	-0.078278	0.030518	-0.009613	0.27283	-0.003357	0.39932	-0.070343	-0.002136	-0.010834
30.049	0.004883	-0.070801	0.047913	0.012817	-0.002899	0.10071	0.074005	0.00412	0.037689	-0.079651	0.14175	0.005493	-0.13275	0.13947	0.097351	-0.013275	-0.000458	0.009155	0.23086	-0.045776	-0.027466	0.027313	-0.11749	-0.1152	0.020447	-0.008545	0.30441	0.001373	-0.17532	-0.1062	-0.003204	-0.001984
30.05	0.007477	-0.10178	-0.003967	-0.001831	0.001373	-0.18036	0.081635	0.005341	0.043945	-0.073547	0.30609	0.002594	0.38223	0.10651	-0.002441	0.027161	-0.000305	0.002747	0.087891	0.039978	-0.0383	0.030212	-0.11368	-0.12131	0.023651	-0.016174	0.27588	-0.001221	-0.71793	-0.14648	-0.001678	-0.001984
30.051	-0.000305	-0.1265	-0.072479	0.008545	-0.003967	-0.35568	0.077057	-0.000305	0.0383	-0.080566	0.20981	0.005035	-0.12085	0.04425	-0.30563	0.032806	0.00885	-0.027161	-0.072327	0.071106	-0.071869	0.032806	-0.046082	-0.10651	0.027618	-0.003815	0.2803	-0.002136	-0.53528	-0.14893	-0.002441	0.001984
30.052	0.006104	-0.1152	-0.046082	0.013885	-0.008545	-0.23697	0.083618	0.004578	0.022278	-0.036011	-0.1593	0.005646	-0.27847	0.011444	-0.34073	0.039063	0.007324	0.023651	-0.052643	0.010529	-0.090485	0.014954	-0.014191	-0.093689	0.030823	0.00351	0.23346	-0.003357	0.11215	-0.14328	-0.006104	0.003967
30.053	0.009003	-0.12207	-0.041351	0.015106	-0.023193	0.084381	0.067444	0.004272	0.028992	-0.010834	-0.17197	0.004425	-0.080872	0.077362	-0.13123	0.030518	0.013428	-0.060425	-0.24704	-0.048828	-0.10147	-0.014343	0.026245	-0.085144	0.035553	0.005798	-0.092163	0.008698	0.25604	-0.090942	-0.001221	0.003815
30.054	0.010681	-0.13168	-0.026245	-0.010223	-0.018768	0.12726	0.06958	0.003662	0.039978	0.042877	-0.016785	0.018768	0.027008	0.085602	-0.066071	0.02243	0.00946	0.00412	-0.28595	0.014496	-0.021515	-0.032654	0.08194	-0.076447	0.039368	0.011292	-0.4042	0.000458	0.14221	-0.033875	-0.00351	0.006714
30.055	0.00473	-0.14969	0.003662	-0.001068	-0.053864	0.33661	0.087433	0.007324	0.039673	0.070801	0.12466	0.004578	0.046387	0	-0.062714	0.001221	0.016174	0.065918	-0.096588	0.036316	0.15442	0.007324	0.043182	-0.027313	0.036316	0.002899	-0.40497	-0.000916	0.027924	-0.076294	-0.002594	0.006866
30.056	-0.005341	-0.1413	0.05722	0.016785	-0.067139	0.44662	0.12528	0.010529	0.023499	0.044403	0.089569	0.016479	0.15595	-0.072632	-0.099182	0.009308	0.00885	0.063171	0.080109	0.01709	0.098724	0.063171	0.027008	-0.063782	0.019226	-0.00351	-0.27084	-0.000458	-0.12894	-0.034943	-0.001678	0.003204
30.057	0.007324	-0.12619	0.072174	0.028839	-0.00061	0.18845	0.11017	0.010529	0.0383	0.052338	0.053558	0.017395	0.17654	-0.11795	-0.054169	0.003204	-0.032196	-0.008698	0.20737	0.008087	0.029755	0.074768	-0.015717	-0.027313	0.031281	-0.00885	-0.14725	-0.000916	-0.09964	0	-0.002747	-0.003204
30.058	0.017853	-0.15137	-0.027313	0.011292	0.1004	-0.33173	0.086823	-0.005035	0.049591	0.035248	-0.044098	0.00412	0.065613	-0.12421	0.22415	-0.010834	-0.032959	-0.015564	0.14297	0.005951	-0.019073	-0.029449	-0.020142	-0.040283	0.021973	-0.006866	-0.074463	-0.001526	-0.11536	-0.021362	-0.000763	-0.002899
30.059	0.035858	-0.13794	-0.096436	-0.001678	0.15976	-0.4509	0.089417	-0.006561	0.071106	0.050659	-0.12955	0.014648	-0.047607	-0.10727	0.084686	-0.018616	-0.015259	-0.003052	0.021973	0.063019	-0.058594	-0.07843	-0.014648	-0.050812	0.007324	-0.00824	0.016174	0.000763	-0.053406	-0.013428	-0.00412	-0.014038
30.06	0.023346	-0.10468	-0.10925	0.014038	0.1152	-0.22675	0.12116	-0.006256	0.049744	0.03067	-0.1561	0.007935	-0.075226	-0.09613	0.18326	-0.022278	-0.006714	0.14435	-0.20218	0.074615	-0.018768	-0.081177	-0.047302	-0.071259	-0.004578	-0.007019	0.043793	-0.002899	0.003204	-0.020599	-0.003052	-0.011749
30.061	0.027161	-0.082245	-0.092773	-0.006561	0.059052	-0.41657	0.13412	-0.002136	0.029297	-0.036621	-0.086975	0.01358	-0.045166	-0.15243	0.06485	-0.001678	-0.00061	0.10223	-0.35889	0.024261	0.00473	-0.059814	-0.004272	-0.05249	0.01709	-0.011292	0.061646	0.000153	-0.017548	-0.032043	0.001831	-0.002747
30.062	0.011139	-0.10407	-0.068054	0.000458	0.061493	-0.4097	0.13382	-0.001984	0.032501	-0.079956	-0.036163	0.009613	-0.11215	-0.12528	0.10391	-0.013123	-0.010071	0.051117	-0.46249	-0.075226	-0.010376	-0.053101	-0.024719	-0.069122	0.001221	-0.007324	0.056915	0.000153	-0.054169	-0.032349	0.000916	-0.004578
30.063	0.010223	-0.11078	-0.016174	0.014038	0.041046	-0.16846	0.14206	-0.002289	0.015869	-0.062866	0.013428	-0.00061	-0.065765	-0.12451	0.11139	-0.017548	-0.005493	0.016785	-0.26901	-0.029602	-0.042572	-0.012665	-0.040741	-0.075989	0.016174	-0.01236	0.065765	-0.002594	-0.056305	-0.040741	0	-0.00946
30.064	0.005341	-0.083466	-0.033875	0.015869	-0.003662	-0.076599	0.14084	0.003662	-0.026398	-0.068207	0.03006	0.006409	-0.097656	-0.11749	0.055542	-0.016632	0.005188	-0.011139	-0.17975	-0.002747	-0.10437	-0.032349	-0.058289	-0.09491	0.011597	-0.014954	0.083313	0.001221	-0.03067	-0.073853	-0.000916	-0.010071
30.065	0.015869	-0.094299	-0.039368	0.005798	-0.024719	-0.072784	0.15228	0.000305	-0.056152	0.10513	0.038605	-0.001221	0.049438	-0.16159	-0.00351	-0.009308	0.000153	-0.019073	0.22492	-0.091248	-0.067902	-0.057526	-0.070648	-0.054932	0.009308	-0.011749	0.076141	0.000305	0.006866	-0.079498	0.000153	-0.004578
30.066	0.014038	-0.046539	-0.050659	0.009613	0.056763	-0.058594	0.13992	-0.00351	-0.074615	0.1651	0.007019	0.010986	0.28397	-0.14801	0.009003	-0.014801	-0.011902	0.010529	0.22827	-0.11093	0.07431	-0.028839	-0.073853	-0.042114	0.023041	-0.009308	0.065002	-0.00061	0.064087	-0.06897	-0.00061	-0.001678
30.067	0.009308	-0.037079	-0.075684	0.013428	0.065613	-0.025482	0.15396	-0.01236	-0.066528	0.2562	0.007324	0.011902	-0.044708	-0.09079	0.02594	-0.009613	-0.019073	0.041046	0.12054	-0.063934	0.10788	-0.053101	-0.039673	-0.042114	0.029449	-0.008545	0.047607	-0.005188	-0.013885	-0.063477	-0.001831	0.000916
30.068	0.005951	-0.028992	-0.013428	-0.023041	0.048523	-0.028992	0.16602	-0.019836	-0.030212	0.30548	0.007782	-0.009003	-0.024567	-0.041351	0.01709	-0.005035	-0.010681	0.044556	0.00473	0.012054	0.042267	-0.015869	-0.048828	-0.051117	0.022278	-0.009613	-0.032349	-0.001831	-0.37827	-0.070038	-0.00473	-0.003662
30.069	0.001068	-0.020752	-0.02121	-0.009003	0.050049	0.001068	0.19424	-0.012817	0.045319	0.29923	-0.028076	0.007324	0.099182	0.027771	0.024567	-0.012817	-0.00824	0.057068	-0.12009	0.099487	-0.030975	0.26901	-0.040741	-0.050354	0.031433	0.002747	-0.001678	-0.003204	-0.47119	-0.10422	-0.004578	0.001831
30.07	0.009155	-0.044403	-0.05661	-0.017242	0.047607	0.064392	0.20157	-0.017548	0.07019	0.18219	-0.08316	0.013733	-0.10635	0.024567	0.052948	-0.007172	-0.019073	0.033264	-0.20905	0.1506	-0.052185	0.22903	-0.042267	-0.046844	0.022278	-0.00824	-0.008392	-0.002899	0.022736	-0.095978	-0.002441	-0.00412
30.071	0.002899	-0.03952	-0.053253	0.005188	0.032043	0.10147	0.22476	-0.019379	0.023193	0.010529	-0.13565	0.025024	-0.13534	-0.062103	-0.005035	0.002441	-0.003967	0.046844	-0.22461	0.057678	-0.016937	0.1413	-0.03891	-0.054321	0.015717	-0.01297	-0.10513	-0.009308	0.952	-0.11719	-0.00351	0.014038
30.072	0.00824	0.010223	0.001678	0.033875	0.022888	0.081787	0.22873	-0.007935	-0.03006	-0.055695	-0.1767	0.039368	-0.1001	-0.11017	-0.082397	0.009918	-0.010223	0.068359	-0.35019	0.018005	0.030518	0.074158	-0.065155	-0.059357	0.023956	-0.015259	-0.090942	-0.00824	0.83099	-0.1918	-0.003967	-0.00061
30.073	0.005798	0.033722	0.011292	0.031738	0.026398	0.06073	0.20416	0.000763	-0.053101	-0.052948	-0.096588	0.00946	-0.084991	0.006104	-0.057831	-0.001068	-0.018005	0.070953	-0.37399	0.017242	0.039673	0.062714	-0.031586	-0.078278	0.025635	-0.013275	-0.015259	-0.006561	0.50156	-0.16144	0.001831	-0.000916
30.074	0.008698	0.037079	0.014343	0.020905	0.026703	0.043335	0.13168	0.007935	-0.019226	0.041809	0.17532	0.000763	-0.22278	0.062256	0.24216	0.003815	-0.013123	-0.00412	-0.40405	-0.002289	0.019684	0.010681	-0.060883	-0.02594	0.032654	-0.010376	0.018921	-0.010834	0.29221	-0.059052	-0.000763	-0.013428
30.075	0.006714	0.021515	-0.050659	0.018921	0.03006	0.029297	0.075531	0.007629	0.014038	0.055847	0.3627	-0.000916	-0.24445	-0.061188	-0.07019	-0.005493	0.003815	-0.030365	-0.17014	-0.001678	-0.000916	-0.037994	-0.052185	-0.062866	0.013123	-0.002441	0.13336	-0.012207	-0.47577	-0.01358	-0.002747	-0.008545
30.076	0.007629	0.012054	0.027771	0.001984	0.024719	0.026245	-0.010681	0.007782	-0.025635	-0.005493	0.29205	-0.004425	0.16953	0.000916	0.19028	0.008392	0.010529	-0.004883	0.12421	0.052795	0.011597	-0.081024	-0.046997	-0.057831	0.042419	0.002136	0.2243	-0.013733	-1.0458	-0.071106	-0.004578	0.000458
30.077	0.005646	0.040131	0.072479	-0.00351	0.021667	0.043793	0.037384	0.00473	0.019836	-0.019379	0.17548	0.005188	0.2945	0.059357	0.012512	-0.001373	0.028076	0.027466	0.63446	0.061951	0.010529	0.009308	-0.028534	-0.10315	0.032501	-0.006104	0.2121	-0.01297	-0.44891	-0.077515	-0.000458	-0.00351
30.078	-0.000305	0.040283	-0.011444	0.015411	0.015869	0.074768	0.17029	0.000153	0.15015	-0.003967	0.070343	0.004425	0.60013	0.047913	0.20035	0.006256	0.02594	-0.023804	0.46036	0.041199	0.050812	0.009766	-0.027466	-0.16586	0.025482	-0.013123	-0.020599	-0.015564	-0.10422	-0.0177	-0.00061	0.000305
30.079	0.008545	0.047607	-0.056915	-0.005798	0.024567	0.045471	0.20172	-0.008392	0.13855	-0.015717	-0.052948	-0.003052	0.37338	0.12711	0.25192	0.015869	0.014801	-0.045471	-0.18539	0.016022	0.04425	-0.019073	-0.013733	-0.14633	0.044403	-0.02182	-0.41611	-0.013733	-0.11704	-0.10193	-0.001526	-0.003967
30.08	0.009155	0.052032	0.027771	-0.003052	0.028839	0.051727	0.17639	-0.00473	0.083618	0.046082	-0.15427	-0.001221	-0.42053	0.18585	1.1455	0.005341	-0.018311	-0.039215	-0.51743	-0.029602	-0.065155	-0.0177	-0.045776	-0.080261	0.027771	-0.022125	-0.44891	-0.016022	-0.09613	-0.087891	-0.007324	-0.005493
30.081	0.017853	0.074158	0.083008	0.002136	0.027924	-0.009918	0.18616	-0.007935	0.033875	0.032043	-0.12222	-0.007477	-0.22995	0.3035	0.24689	0.020752	-0.037537	-0.019226	-0.23392	0.000458	0.13153	0	-0.036774	-0.005646	0.052948	-0.018311	-0.26138	-0.016022	-0.19012	-0.028992	-0.002136	-0.003662
